<svg width="512" height="472" viewBox="0 0 512 472" fill="none" xmlns="http://www.w3.org/2000/svg">
<path d="M222.8 242L10.8905 336.525C-3.6302 343.002 -3.6302 363.613 10.8905 370.091L222.799 464.615C233.247 469.275 244.559 471.684 255.999 471.684C267.44 471.684 278.752 469.275 289.2 464.615L501.108 370.091C515.629 363.613 515.629 343.002 501.108 336.525L289.2 242C278.752 237.34 267.44 234.931 256 234.931C244.56 234.931 233.248 237.34 222.8 242Z" fill="url(#paint0_linear_1_20)" style=""/>
<path d="M335.352 444.028L289.205 464.618C278.754 469.276 267.441 471.683 256 471.683C244.558 471.683 233.245 469.276 222.794 464.618L10.8976 370.089C-3.6312 363.615 -3.6312 342.995 10.8976 336.521L52.5623 317.936C52.5613 317.937 334.341 443.601 335.352 444.028Z" fill="url(#paint1_linear_1_20)" style=""/>
<path d="M176.648 444.028L222.795 464.618C233.246 469.276 244.559 471.683 256.001 471.683C267.442 471.683 278.755 469.276 289.206 464.618L501.102 370.089C515.631 363.615 515.631 342.995 501.102 336.521L459.438 317.936C459.439 317.937 177.659 443.601 176.648 444.028Z" fill="url(#paint2_linear_1_20)" style=""/>
<path d="M222.8 163.795L10.8905 258.319C-3.6302 264.796 -3.6302 285.408 10.8905 291.885L222.799 386.41C233.247 391.07 244.559 393.478 255.999 393.478C267.44 393.478 278.752 391.07 289.2 386.41L501.108 291.885C515.629 285.408 515.629 264.796 501.108 258.319L289.2 163.795C278.752 159.135 267.44 156.726 256 156.726C244.56 156.726 233.248 159.135 222.8 163.795Z" fill="url(#paint3_linear_1_20)" style=""/>
<path d="M222.8 242L60.928 314.205L222.8 386.411C233.248 391.071 244.56 393.479 256.001 393.479C267.441 393.479 278.753 391.071 289.201 386.411L451.072 314.205L289.2 242C278.752 237.34 267.44 234.931 256 234.931C244.56 234.931 233.248 237.34 222.8 242Z" fill="url(#paint4_linear_1_20)" style=""/>
<path d="M335.352 365.822L289.205 386.413C278.754 391.07 267.441 393.477 256 393.477C244.558 393.477 233.245 391.07 222.794 386.413L10.8976 291.883C-3.6312 285.409 -3.6312 264.789 10.8976 258.315L52.5623 239.731C52.5613 239.732 334.341 365.395 335.352 365.822Z" fill="url(#paint5_linear_1_20)" style=""/>
<path d="M176.648 365.822L222.795 386.413C233.246 391.07 244.559 393.477 256.001 393.477C267.442 393.477 278.755 391.07 289.206 386.413L501.102 291.883C515.631 285.409 515.631 264.789 501.102 258.315L459.438 239.731C459.439 239.732 177.659 365.395 176.648 365.822Z" fill="url(#paint6_linear_1_20)" style=""/>
<path d="M222.8 85.5905L10.8905 180.115C-3.6302 186.592 -3.6302 207.204 10.8905 213.681L222.799 308.205C233.247 312.865 244.559 315.274 255.999 315.274C267.44 315.274 278.752 312.865 289.2 308.205L501.108 213.681C515.629 207.204 515.629 186.592 501.108 180.115L289.2 85.5905C278.752 80.9298 267.44 78.5211 256 78.5211C244.56 78.5211 233.248 80.9298 222.8 85.5905Z" fill="url(#paint7_linear_1_20)" style=""/>
<path d="M222.8 163.795L60.928 236L222.8 308.205C233.248 312.865 244.56 315.274 256.001 315.274C267.441 315.274 278.753 312.865 289.201 308.205L451.072 236L289.2 163.795C278.752 159.135 267.44 156.726 256 156.726C244.56 156.726 233.248 159.135 222.8 163.795Z" fill="url(#paint8_linear_1_20)" style=""/>
<path d="M335.352 287.618L289.205 308.208C278.754 312.866 267.441 315.273 256 315.273C244.558 315.273 233.245 312.866 222.794 308.208L10.8976 213.679C-3.6312 207.205 -3.6312 186.585 10.8976 180.111L52.5623 161.526C52.5623 161.526 334.341 287.191 335.352 287.618Z" fill="url(#paint9_linear_1_20)" style=""/>
<path d="M176.648 287.618L222.795 308.208C233.246 312.866 244.559 315.273 256.001 315.273C267.442 315.273 278.755 312.866 289.206 308.208L501.102 213.679C515.631 207.205 515.631 186.585 501.102 180.111L459.438 161.526C459.439 161.527 177.659 287.191 176.648 287.618Z" fill="url(#paint10_linear_1_20)" style=""/>
<path d="M222.8 7.38496L10.8905 101.909C-3.6302 108.386 -3.6302 128.998 10.8905 135.475L222.799 230C233.247 234.66 244.559 237.068 255.999 237.068C267.44 237.068 278.752 234.66 289.2 230L501.108 135.475C515.629 128.998 515.629 108.386 501.108 101.909L289.201 7.38496C278.753 2.72478 267.441 0.316343 256.001 0.316343C244.56 0.316343 233.248 2.72478 222.8 7.38496Z" fill="url(#paint11_linear_1_20)" style=""/>
<path d="M222.8 85.5905L60.928 157.796L222.8 230.001C233.248 234.661 244.56 237.069 256.001 237.069C267.441 237.069 278.753 234.661 289.201 230.001L451.073 157.796L289.201 85.5905C278.753 80.9298 267.441 78.5211 256.001 78.5211C244.56 78.5211 233.248 80.9298 222.8 85.5905Z" fill="url(#paint12_linear_1_20)" style=""/>
<path d="M335.352 209.412L289.205 230.003C278.754 234.66 267.441 237.067 256 237.067C244.558 237.067 233.245 234.66 222.794 230.003L10.8976 135.473C-3.6312 128.999 -3.6312 108.379 10.8976 101.905L52.5623 83.3206C52.5623 83.3206 334.341 208.985 335.352 209.412Z" fill="url(#paint13_linear_1_20)" style=""/>
<path d="M176.648 209.412L222.795 230.003C233.246 234.66 244.559 237.067 256.001 237.067C267.442 237.067 278.755 234.66 289.206 230.003L501.102 135.473C515.631 128.999 515.631 108.379 501.102 101.905L459.438 83.3206C459.439 83.3216 177.659 208.985 176.648 209.412Z" fill="url(#paint14_linear_1_20)" style=""/>
<defs>
<linearGradient id="paint0_linear_1_20" x1="233.493" y1="314.431" x2="327.405" y2="476.643" gradientUnits="userSpaceOnUse">
<stop stop-color="#A0332F" style="stop-color:#A0332F;stop-color:color(display-p3 0.6275 0.1991 0.1843);stop-opacity:1;"/>
<stop offset="1" stop-color="#611718" style="stop-color:#611718;stop-color:color(display-p3 0.3804 0.0902 0.0950);stop-opacity:1;"/>
</linearGradient>
<linearGradient id="paint1_linear_1_20" x1="166.83" y1="398.769" x2="140.998" y2="459.968" gradientUnits="userSpaceOnUse">
<stop stop-color="#400909" stop-opacity="0" style="stop-color:none;stop-opacity:0;"/>
<stop offset="1" stop-color="#400909" style="stop-color:#400909;stop-color:color(display-p3 0.2510 0.0353 0.0353);stop-opacity:1;"/>
</linearGradient>
<linearGradient id="paint2_linear_1_20" x1="345.171" y1="398.769" x2="371.003" y2="459.968" gradientUnits="userSpaceOnUse">
<stop stop-color="#40090A" stop-opacity="0" style="stop-color:none;stop-opacity:0;"/>
<stop offset="1" stop-color="#400909" style="stop-color:#400909;stop-color:color(display-p3 0.2510 0.0353 0.0353);stop-opacity:1;"/>
</linearGradient>
<linearGradient id="paint3_linear_1_20" x1="233.493" y1="236.226" x2="327.405" y2="398.439" gradientUnits="userSpaceOnUse">
<stop stop-color="#E04548" style="stop-color:#E04548;stop-color:color(display-p3 0.8784 0.2706 0.2807);stop-opacity:1;"/>
<stop offset="1" stop-color="#A02F31" style="stop-color:#A02F31;stop-color:color(display-p3 0.6275 0.1843 0.1917);stop-opacity:1;"/>
</linearGradient>
<linearGradient id="paint4_linear_1_20" x1="256" y1="347.919" x2="256" y2="184.888" gradientUnits="userSpaceOnUse">
<stop stop-color="#A02F31" stop-opacity="0" style="stop-color:none;stop-opacity:0;"/>
<stop offset="1" stop-color="#A0372F" style="stop-color:#A0372F;stop-color:color(display-p3 0.6275 0.2139 0.1843);stop-opacity:1;"/>
</linearGradient>
<linearGradient id="paint5_linear_1_20" x1="166.83" y1="320.564" x2="140.998" y2="381.762" gradientUnits="userSpaceOnUse">
<stop stop-color="#613117" stop-opacity="0" style="stop-color:none;stop-opacity:0;"/>
<stop offset="1" stop-color="#611717" style="stop-color:#611717;stop-color:color(display-p3 0.3804 0.0902 0.0902);stop-opacity:1;"/>
</linearGradient>
<linearGradient id="paint6_linear_1_20" x1="345.171" y1="320.564" x2="371.003" y2="381.762" gradientUnits="userSpaceOnUse">
<stop stop-color="#611730" stop-opacity="0" style="stop-color:none;stop-opacity:0;"/>
<stop offset="1" stop-color="#611717" style="stop-color:#611717;stop-color:color(display-p3 0.3804 0.0902 0.0902);stop-opacity:1;"/>
</linearGradient>
<linearGradient id="paint7_linear_1_20" x1="233.493" y1="158.021" x2="327.405" y2="320.233" gradientUnits="userSpaceOnUse">
<stop stop-color="#FF927A" style="stop-color:#FF927A;stop-color:color(display-p3 1.0000 0.5741 0.4784);stop-opacity:1;"/>
<stop offset="1" stop-color="#E07945" style="stop-color:#E07945;stop-color:color(display-p3 0.8784 0.4732 0.2706);stop-opacity:1;"/>
</linearGradient>
<linearGradient id="paint8_linear_1_20" x1="256" y1="260.405" x2="256" y2="21.9619" gradientUnits="userSpaceOnUse">
<stop stop-color="#A02F31" stop-opacity="0" style="stop-color:none;stop-opacity:0;"/>
<stop offset="1" stop-color="#A02F2F" style="stop-color:#A02F2F;stop-color:color(display-p3 0.6275 0.1843 0.1843);stop-opacity:1;"/>
</linearGradient>
<linearGradient id="paint9_linear_1_20" x1="166.83" y1="242.359" x2="140.998" y2="303.558" gradientUnits="userSpaceOnUse">
<stop stop-color="#A02F2F" stop-opacity="0" style="stop-color:none;stop-opacity:0;"/>
<stop offset="1" stop-color="#A02F31" style="stop-color:#A02F31;stop-color:color(display-p3 0.6275 0.1843 0.1917);stop-opacity:1;"/>
</linearGradient>
<linearGradient id="paint10_linear_1_20" x1="345.171" y1="242.359" x2="371.003" y2="303.558" gradientUnits="userSpaceOnUse">
<stop stop-color="#A02F31" stop-opacity="0" style="stop-color:none;stop-opacity:0;"/>
<stop offset="1" stop-color="#A04D2F" style="stop-color:#A04D2F;stop-color:color(display-p3 0.6275 0.3025 0.1843);stop-opacity:1;"/>
</linearGradient>
<linearGradient id="paint11_linear_1_20" x1="233.493" y1="79.8159" x2="327.405" y2="242.029" gradientUnits="userSpaceOnUse">
<stop stop-color="#FFD2C7" style="stop-color:#FFD2C7;stop-color:color(display-p3 1.0000 0.8243 0.7804);stop-opacity:1;"/>
<stop offset="1" stop-color="#FF9D7A" style="stop-color:#FF9D7A;stop-color:color(display-p3 1.0000 0.6175 0.4784);stop-opacity:1;"/>
</linearGradient>
<linearGradient id="paint12_linear_1_20" x1="244.432" y1="193.4" x2="329.811" y2="-69.3779" gradientUnits="userSpaceOnUse">
<stop stop-color="#FF7A7A" stop-opacity="0" style="stop-color:none;stop-opacity:0;"/>
<stop offset="1" stop-color="#A02F31" style="stop-color:#A02F31;stop-color:color(display-p3 0.6275 0.1843 0.1917);stop-opacity:1;"/>
</linearGradient>
<linearGradient id="paint13_linear_1_20" x1="166.83" y1="164.154" x2="140.998" y2="225.352" gradientUnits="userSpaceOnUse">
<stop stop-color="#FF7A7C" stop-opacity="0" style="stop-color:none;stop-opacity:0;"/>
<stop offset="1" stop-color="#A0422F" style="stop-color:#A0422F;stop-color:color(display-p3 0.6275 0.2582 0.1843);stop-opacity:1;"/>
</linearGradient>
<linearGradient id="paint14_linear_1_20" x1="345.171" y1="164.154" x2="371.003" y2="225.352" gradientUnits="userSpaceOnUse">
<stop stop-color="#FFB17A" stop-opacity="0" style="stop-color:none;stop-opacity:0;"/>
<stop offset="1" stop-color="#A02F2F" style="stop-color:#A02F2F;stop-color:color(display-p3 0.6275 0.1843 0.1843);stop-opacity:1;"/>
</linearGradient>
</defs>
</svg>
